<svg xmlns="http://www.w3.org/2000/svg" width="100" height="100"><path fill="#A0BCC4" d="M75.32 43.7c0-.04.01-.07.01-.12s.01-.09.01-.13c0-.02-.01-.03-.01-.05 0-.15-.01-.3-.07-.45l-4.12-12.04c-.21-.6-.78-1.02-1.43-1.02H29.84c-.65 0-1.22.41-1.43 1.02l-4.12 12.04c-.05.15-.07.3-.07.45 0 .01-.02.03-.02.05 0 .04.02.09.02.13s0 .08.01.12a6.461 6.461 0 004.26 5.82v18.59c0 .82.67 1.5 1.5 1.5h39.55c.83 0 1.5-.68 1.5-1.5v-18.6a6.442 6.442 0 004.28-5.81zm-44.4-10.79h37.72l3.1 9.04H27.82l3.1-9.04zm29.39 12.04c-.57 1.17-1.75 1.98-3.13 1.98h-2.07a3.46 3.46 0 01-3.13-1.98h8.33zm-12.37 0c-.57 1.17-1.75 1.98-3.13 1.98h-2.07a3.46 3.46 0 01-3.13-1.98h8.33zm-20.38 0h8.36a3.486 3.486 0 01-3.14 1.98h-2.07c-1.4 0-2.6-.81-3.15-1.98zM47.97 66.6V55.67h4.32V66.6h-4.32zm7.32 0V54.18c0-.83-.67-1.5-1.5-1.5h-7.32c-.83 0-1.5.67-1.5 1.5V66.6H31.5V49.93h1.27c2.01 0 3.79-.94 4.98-2.38 1.19 1.44 2.97 2.38 4.98 2.38h2.07c2.11 0 3.97-1.03 5.16-2.59 1.19 1.56 3.05 2.59 5.16 2.59h2.07c1.92 0 3.62-.85 4.8-2.17 1.19 1.32 2.9 2.17 4.8 2.17h1.28v16.68H55.29v-.01zm13.56-19.67h-2.07a3.46 3.46 0 01-3.13-1.98H72a3.5 3.5 0 01-3.15 1.98z"/></svg>