<svg xmlns="http://www.w3.org/2000/svg" width="100" height="100"><path fill="#A6B9CE" d="M70.17 42.19c-.01-.03-.01-.06-.03-.09-.08-.15-.17-.28-.27-.4-.03-.03-.04-.05-.07-.08-.04-.04-.07-.09-.12-.12L50.66 27.71c-.53-.38-1.23-.38-1.76 0l-5.94 4.3v-.96c0-.83-.67-1.5-1.5-1.5h-7.71c-.83 0-1.5.67-1.5 1.5v8.7l-2.39 1.72c-.05.03-.09.07-.12.12-.03.03-.06.05-.08.08-.12.12-.21.25-.27.4-.01.03-.01.06-.03.09-.06.17-.1.34-.1.53v27.93c0 .83.68 1.5 1.5 1.5h38.03c.82 0 1.5-.67 1.5-1.5V42.71c-.02-.19-.07-.36-.12-.52zm-20.4-11.4l14.38 10.42H35.38l1.2-.87 13.19-9.55zm-14.51 1.78h4.68v1.64l-3.39 2.46-1.28.93v-5.03h-.01zm9.39 36.56V56.77h10.23v12.36H44.65zm13.23 0V55.27c0-.82-.67-1.5-1.5-1.5H43.15c-.82 0-1.5.68-1.5 1.5v13.86h-9.39V44.21h35.01v24.93h-9.39v-.01z"/></svg>