<svg xmlns="http://www.w3.org/2000/svg" width="100" height="100"><path fill="#A0C6C4" d="M64.61 45.31h-.79v-2.76c0-6.66-5.42-12.09-12.09-12.09h-14.6c-4.95 0-8.97 4.02-8.97 8.97v6.28c-2.57.92-4.41 3.33-4.41 6.19v4.59c0 3.63 2.95 6.6 6.6 6.6h1.66c.62 3.38 3.56 5.96 7.11 5.96s6.49-2.58 7.11-5.96h7.09c.62 3.38 3.56 5.96 7.11 5.96s6.5-2.58 7.11-5.96h1.67c3.63 0 6.6-2.95 6.6-6.6-.02-6.17-5.03-11.18-11.2-11.18zm-3.81-2.78v2.7H43.1V33.46h8.62c5 0 9.08 4.08 9.08 9.07zm-29.65-3.1c0-3.3 2.69-5.97 5.97-5.97h2.99v11.78h-8.95c-.01-.01-.01-5.81-.01-5.81zm7.96 26.61c-2.34 0-4.24-1.9-4.24-4.25 0-.04.01-.07.01-.12 0-.01 0-.01.02-.03.03-.85.31-1.64.76-2.28.03-.04.06-.07.09-.12.12-.17.26-.33.4-.48.09-.09.2-.17.28-.24.1-.09.21-.18.33-.26.15-.09.3-.17.46-.26.09-.05.17-.09.26-.13.19-.08.39-.14.58-.18.06-.01.14-.04.19-.06a3.93 3.93 0 011.68 0c.06.02.12.05.18.06.21.05.42.1.6.19.07.03.15.08.22.12.17.08.33.17.48.26.1.08.21.17.3.24.1.09.21.17.3.25.15.14.27.3.39.47.03.05.08.09.1.14.45.65.74 1.42.77 2.28 0 .01 0 .01.01.03 0 .04.01.07.01.12.05 2.34-1.84 4.25-4.18 4.25zm21.32 0c-2.34 0-4.24-1.9-4.24-4.25 0-.04.01-.07.01-.12 0-.01 0-.01.02-.03.03-.85.31-1.64.76-2.28.05-.06.09-.1.13-.15.12-.15.24-.3.38-.44.1-.09.21-.18.33-.27.09-.08.18-.17.28-.23.15-.1.33-.18.49-.27.08-.03.14-.09.21-.12.19-.07.41-.13.62-.19.06-.01.12-.04.18-.06a3.93 3.93 0 011.68 0c.06.02.12.05.18.06.21.05.42.1.61.19.08.03.15.08.23.12.17.08.33.17.5.27.1.08.2.15.28.23.1.09.23.17.33.27.13.13.25.28.38.44.04.06.09.1.13.15.45.65.74 1.43.76 2.28 0 .01 0 .01.01.03 0 .04.01.08.01.12-.04 2.34-1.95 4.25-4.27 4.25zm8.76-5.96h-1.75c-.03-.1-.07-.21-.1-.31-.12-.4-.27-.79-.45-1.15-.14-.27-.27-.54-.42-.78-.08-.12-.18-.22-.25-.34-.18-.24-.36-.48-.57-.69-.09-.1-.19-.19-.3-.28-.23-.21-.45-.41-.71-.58l-.35-.23a5.23 5.23 0 00-.81-.44 5.573 5.573 0 00-1.31-.45c-.12-.03-.24-.07-.38-.09-.45-.09-.9-.13-1.36-.13-.47 0-.93.06-1.37.13-.13.03-.24.06-.38.09-.31.08-.63.17-.93.28-.14.05-.26.12-.38.17-.28.14-.56.27-.81.44-.12.08-.22.15-.35.23-.25.18-.48.38-.7.58-.1.09-.21.18-.3.28-.21.22-.39.45-.57.69-.09.12-.18.22-.26.34-.17.26-.3.51-.42.78-.18.38-.33.75-.45 1.15-.03.1-.08.21-.1.31h-7.28c-.03-.1-.07-.21-.1-.31-.12-.42-.28-.82-.47-1.2-.12-.26-.25-.51-.4-.74l-.27-.36c-.18-.24-.36-.46-.56-.67-.1-.1-.21-.19-.31-.3-.23-.21-.45-.39-.69-.57-.12-.09-.24-.17-.36-.24-.26-.17-.53-.3-.8-.44l-.39-.18c-.3-.12-.6-.21-.92-.28-.12-.03-.24-.08-.38-.1-.45-.09-.9-.14-1.37-.14-.46 0-.93.06-1.36.14-.14.03-.26.06-.38.1-.31.07-.63.17-.93.28-.14.05-.26.12-.38.17-.28.13-.56.27-.81.44-.12.07-.24.15-.34.22-.24.18-.48.38-.71.58-.1.09-.21.18-.3.28-.21.21-.39.45-.57.69-.09.12-.18.23-.27.35-.15.24-.28.49-.42.76-.18.38-.33.76-.45 1.17-.03.1-.08.21-.1.31h-1.76a3.61 3.61 0 01-3.6-3.6v-4.59c0-1.98 1.62-3.6 3.6-3.6h34.26c4.51 0 8.17 3.67 8.17 8.19a3.563 3.563 0 01-3.57 3.64z"/></svg>