<svg xmlns="http://www.w3.org/2000/svg" width="100" height="100"><path fill="#C0AD83" d="M69.03 63.24V45.93c0-10.62-8.64-19.26-19.26-19.26s-19.26 8.64-19.26 19.26v18.71c0 6.18 10.06 8.18 14.94 8.18h8.64c4.68 0 14.94-2.15 14.94-8.49v-1.09zm-35.52-17.3c0-8.97 7.29-16.26 16.26-16.26s16.26 7.29 16.26 16.26v15.27c-.36-.1-.75-.22-1.17-.34a19.013 19.013 0 00-7.14-1.65c-.22-.01-.42-.03-.6-.03h-.26v-3.14c.96-.57 1.88-1.26 2.7-2.07 2.6-2.58 4.02-6.02 4.02-9.68 0-.6-.04-1.22-.15-1.94a1.44 1.44 0 00-.57-.97l-6.58-5.09c-.4-.31-.93-.39-1.41-.22l-3.19 1.11.38-2.15c.1-.58-.15-1.17-.63-1.5-.48-.33-1.12-.34-1.62-.04l-12.6 7.71c-.38.23-.63.62-.7 1.06l-.05.26c-.52 3.53-1.15 7.88 6.62 13.4v3.26h-.65c-3.12 0-6.17.76-8.91 2.22V45.94zm21.19 7.88c-.73.38-1.51.64-2.3.84-.01 0-.03 0-.04.01-.39.09-.78.17-1.17.21h-.01c-.75.09-1.52.09-2.28.02-.1-.02-.19-.02-.3-.03a10.91 10.91 0 01-3.3-.99c-6.51-4.44-6.39-7.4-5.95-10.44l9.18-5.62-.24 1.4c-.09.53.1 1.05.51 1.4.41.35.96.45 1.47.27l4.83-1.68 5.44 4.22c.03.33.05.63.05.92 0 2.85-1.11 5.53-3.14 7.54-.81.8-1.72 1.46-2.7 1.95-.01-.03-.03-.03-.05-.02zm-.61 16h-8.64c-4.86 0-11.58-1.88-11.91-4.95.3-.19.59-.38.9-.55 5.22-1.71 7.14-2.09 7.83-2.13h2.3c.83 0 1.5-.67 1.5-1.5v-3.3c.56.15 1.14.27 1.69.36.17.03.33.05.49.08.6.07 1.15.12 1.6.12h.11c.6 0 1.2-.06 1.79-.13.12-.02.24-.03.36-.06.6-.09 1.19-.21 1.76-.39v3.32c0 .82.68 1.5 1.5 1.5h1.76c1.05 0 4.2.79 6.81 1.53.69.33 1.38.71 2.02 1.14-.7 3-7.37 4.96-11.87 4.96z"/></svg>