<svg xmlns="http://www.w3.org/2000/svg" width="100" height="100"><g fill="#C4B8AB"><path d="M74.7 47.88H61.08V27.4c0-.82-.67-1.5-1.5-1.5H39.7c-.82 0-1.5.68-1.5 1.5v20.48H24.84c-.82 0-1.5.67-1.5 1.5V72.1c0 .83.68 1.5 1.5 1.5H59.6c.04 0 .07-.01.12-.03.05 0 .07.03.12.03h14.88c.83 0 1.5-.67 1.5-1.5V49.38c-.02-.83-.68-1.5-1.52-1.5zm-48.36 3h11.88V70.6H26.34V50.88zM47.92 70.6v-8.37h3.47v8.37h-3.47zm10.16 0h-3.7v-9.87c0-.83-.68-1.5-1.5-1.5h-6.47c-.82 0-1.5.67-1.5 1.5v9.87h-3.7V28.9h16.88c-.01 0-.01 41.7-.01 41.7zm15.12 0H61.32V50.88H73.2V70.6z"/><path d="M30.45 54.86h3.63v7.65h-3.63zm35.01 0h3.63v7.65h-3.63zM47.95 34.88h3.63v7.65h-3.63zm0 12.17h3.63v7.65h-3.63z"/></g></svg>