<svg xmlns="http://www.w3.org/2000/svg" width="50" height="50"><g fill="#AAA"><path d="M41.39 23.5h-9.08V9.85c0-.55-.45-1-1-1H18.06c-.55 0-1 .45-1 1V23.5H8.15c-.55 0-1 .45-1 1v15.15c0 .55.45 1 1 1h23.17c.03 0 .05-.01.08-.02.03 0 .05.02.08.02h9.92c.55 0 1-.45 1-1V24.5c-.01-.55-.45-1-1.01-1zm-32.24 2h7.92v13.15H9.15V25.5zm14.39 13.15v-5.58h2.31v5.58h-2.31zm6.77 0h-2.47v-6.58c0-.55-.45-1-1-1h-4.31c-.55 0-1 .45-1 1v6.58h-2.47v-27.8h11.25v27.8zm10.08 0h-7.92V25.5h7.92v13.15z"/><path d="M11.89 28.16h2.42v5.1h-2.42zm23.34 0h2.42v5.1h-2.42zM23.56 14.84h2.42v5.1h-2.42zm0 8.11h2.42v5.1h-2.42z"/></g></svg>