<svg xmlns="http://www.w3.org/2000/svg" width="50" height="50"><path fill="#AAA" d="M37.61 33.74V22.2c0-7.08-5.76-12.84-12.84-12.84S11.93 15.12 11.93 22.2v12.47c0 4.12 6.71 5.45 9.96 5.45h5.76c3.12 0 9.96-1.43 9.96-5.66v-.72zM13.93 22.21c0-5.98 4.86-10.84 10.84-10.84s10.84 4.86 10.84 10.84v10.18c-.24-.07-.5-.15-.78-.23-1.5-.67-3.1-1.04-4.76-1.1-.15-.01-.28-.02-.4-.02h-.17v-2.09a9.47 9.47 0 001.8-1.38 9.03 9.03 0 002.68-6.45c0-.4-.03-.81-.1-1.29a.995.995 0 00-.38-.65l-4.39-3.39a.993.993 0 00-.94-.15l-2.13.74.25-1.43c.07-.39-.1-.78-.42-1-.32-.22-.75-.23-1.08-.03l-8.4 5.14c-.25.15-.42.41-.47.71l-.03.17c-.35 2.35-.77 5.25 4.41 8.93v2.17h-.43c-2.08 0-4.11.51-5.94 1.48V22.21zm14.13 5.25c-.49.25-1.01.43-1.53.56-.01 0-.02 0-.03.01-.26.06-.52.11-.78.14h-.01c-.5.06-1.01.06-1.52.01-.07-.01-.13-.01-.2-.02-.75-.1-1.5-.32-2.2-.66-4.34-2.96-4.26-4.93-3.97-6.96l6.12-3.75-.16.93c-.06.35.07.7.34.93s.64.3.98.18l3.22-1.12 3.63 2.81a7.04 7.04 0 01-2.06 5.64c-.54.53-1.15.97-1.8 1.3-.01-.01-.02-.01-.03 0zm-.41 10.67h-5.76c-3.24 0-7.72-1.25-7.94-3.3.2-.13.39-.25.6-.37 3.48-1.14 4.76-1.39 5.22-1.42h1.53c.55 0 1-.45 1-1v-2.2c.37.1.76.18 1.13.24.11.02.22.03.33.05.4.05.77.08 1.07.08h.08c.4 0 .8-.04 1.19-.09.08-.01.16-.02.24-.04.4-.06.79-.14 1.17-.26v2.21c0 .55.45 1 1 1h1.17c.7 0 2.8.53 4.54 1.02.46.22.92.47 1.35.76-.47 2.01-4.92 3.32-7.92 3.32z"/></svg>