<svg xmlns="http://www.w3.org/2000/svg" width="50" height="50"><path fill="#AAA" d="M41.8 20.72c0-.03.01-.05.01-.08s.01-.06.01-.09c0-.01-.01-.02-.01-.03 0-.1-.01-.2-.05-.3l-2.75-8.03c-.14-.4-.52-.68-.95-.68H11.48a1 1 0 00-.95.68l-2.75 8.03c-.03.1-.05.2-.05.3 0 .01-.01.02-.01.03 0 .03.01.06.01.09s0 .05.01.08a4.315 4.315 0 002.84 3.88v12.39c0 .55.45 1 1 1h26.37c.55 0 1-.45 1-1v-12.4a4.286 4.286 0 002.85-3.87zm-29.6-7.2h25.15l2.07 6.03H10.14l2.06-6.03zm19.6 8.03c-.38.78-1.17 1.32-2.09 1.32h-1.38c-.92 0-1.72-.54-2.09-1.32h5.56zm-8.25 0c-.38.78-1.17 1.32-2.09 1.32h-1.38c-.92 0-1.72-.54-2.09-1.32h5.56zm-13.59 0h5.57c-.37.78-1.17 1.32-2.09 1.32h-1.38c-.93 0-1.73-.54-2.1-1.32zm13.61 14.43V28.7h2.88v7.28h-2.88zm4.88 0V27.7c0-.55-.45-1-1-1h-4.88c-.55 0-1 .45-1 1v8.28h-8.98V24.87h.85c1.34 0 2.53-.63 3.32-1.59.79.96 1.98 1.59 3.32 1.59h1.38c1.41 0 2.65-.69 3.44-1.73.79 1.04 2.03 1.73 3.44 1.73h1.38c1.28 0 2.41-.57 3.2-1.45.79.88 1.93 1.45 3.2 1.45h.85v11.12h-8.52zm9.04-13.11h-1.38c-.92 0-1.72-.54-2.09-1.32h5.57a2.33 2.33 0 01-2.1 1.32z"/></svg>