<svg xmlns="http://www.w3.org/2000/svg" width="50" height="50"><path fill="#AAA" d="M34.67 21.79h-.53v-1.84c0-4.44-3.61-8.06-8.06-8.06h-9.73c-3.3 0-5.98 2.68-5.98 5.98v4.19c-1.71.61-2.94 2.22-2.94 4.13v3.06c0 2.42 1.97 4.4 4.4 4.4h1.11c.41 2.25 2.37 3.97 4.74 3.97s4.33-1.72 4.74-3.97h4.73c.41 2.25 2.37 3.97 4.74 3.97s4.33-1.72 4.74-3.97h1.11c2.42 0 4.4-1.97 4.4-4.4-.02-4.12-3.36-7.46-7.47-7.46zm-2.54-1.85v1.8h-11.8v-7.85h5.75c3.33 0 6.05 2.72 6.05 6.05zm-19.77-2.07c0-2.2 1.79-3.98 3.98-3.98h1.99v7.85h-5.97v-3.87zm5.31 17.74c-1.56 0-2.83-1.27-2.83-2.83 0-.03.01-.05.01-.08 0-.01 0-.01.01-.02.02-.57.21-1.09.51-1.52.02-.03.04-.05.06-.08.08-.11.17-.22.27-.32.06-.06.13-.11.19-.16.07-.06.14-.12.22-.17.1-.06.2-.11.31-.17.06-.03.11-.06.17-.09.13-.05.26-.09.39-.12.04-.01.09-.03.13-.04a2.597 2.597 0 011.12 0c.04.01.08.03.12.04a1.705 1.705 0 01.55.21c.11.05.22.11.32.17.07.05.14.11.2.16.07.06.14.11.2.17.1.09.18.2.26.31.02.03.05.06.07.09.3.43.49.95.51 1.52 0 .01 0 .01.01.02 0 .03.01.05.01.08a2.81 2.81 0 01-2.81 2.83zm14.21 0c-1.56 0-2.83-1.27-2.83-2.83 0-.03.01-.05.01-.08 0-.01 0-.01.01-.02.02-.57.21-1.09.51-1.52.03-.04.06-.07.09-.1.08-.1.16-.2.25-.29.07-.06.14-.12.22-.18.06-.05.12-.11.19-.15.1-.07.22-.12.33-.18.05-.02.09-.06.14-.08.13-.05.27-.09.41-.13.04-.01.08-.03.12-.04a2.597 2.597 0 011.12 0c.04.01.08.03.12.04.14.03.28.07.41.13.05.02.1.05.15.08.11.05.22.11.33.18.07.05.13.1.19.15.07.06.15.11.22.18.09.09.17.19.25.29.03.04.06.07.09.1.3.43.49.95.51 1.52 0 .01 0 .01.01.02 0 .03.01.05.01.08-.04 1.56-1.31 2.83-2.86 2.83zm5.84-3.97h-1.17c-.02-.07-.05-.14-.07-.21-.08-.27-.18-.53-.3-.77-.09-.18-.18-.36-.28-.52-.05-.08-.12-.15-.17-.23-.12-.16-.24-.32-.38-.46-.06-.07-.13-.13-.2-.19-.15-.14-.3-.27-.47-.39-.08-.05-.15-.1-.23-.15-.17-.11-.35-.21-.54-.29a4.064 4.064 0 00-.87-.3c-.08-.02-.16-.05-.25-.06-.3-.06-.6-.09-.91-.09s-.62.04-.91.09c-.09.02-.16.04-.25.06-.21.05-.42.11-.62.19-.09.03-.17.08-.25.11-.19.09-.37.18-.54.29-.08.05-.15.1-.23.15-.17.12-.32.25-.47.39-.07.06-.14.12-.2.19-.14.15-.26.3-.38.46-.06.08-.12.15-.17.23-.11.17-.2.34-.28.52-.12.25-.22.5-.3.77-.02.07-.05.14-.07.21h-4.85c-.02-.07-.05-.14-.07-.21-.08-.28-.19-.55-.31-.8-.08-.17-.17-.34-.27-.49l-.18-.24c-.12-.16-.24-.31-.37-.45-.07-.07-.14-.13-.21-.2-.15-.14-.3-.26-.46-.38-.08-.06-.16-.11-.24-.16-.17-.11-.35-.2-.53-.29-.09-.04-.17-.08-.26-.12-.2-.08-.4-.14-.61-.19-.08-.02-.16-.05-.25-.07-.3-.06-.6-.09-.91-.09-.31 0-.62.04-.91.09-.09.02-.17.04-.25.07-.21.05-.42.11-.62.19-.09.03-.17.08-.25.11-.19.09-.37.18-.54.29-.08.05-.16.1-.23.15-.16.12-.32.25-.47.39-.07.06-.14.12-.2.19-.14.14-.26.3-.38.46-.06.08-.12.15-.18.23a5.238 5.238 0 00-.58 1.29c-.02.07-.05.14-.07.21h-1.17c-1.32 0-2.4-1.08-2.4-2.4v-3.06c0-1.32 1.08-2.4 2.4-2.4h22.84c3.01 0 5.45 2.45 5.45 5.46a2.42 2.42 0 01-2.41 2.42z"/></svg>