<svg xmlns="http://www.w3.org/2000/svg" width="50" height="50"><path fill="#AAA" d="M38.37 19.72c-.01-.02-.01-.04-.02-.06-.05-.1-.11-.19-.18-.27l-.05-.05c-.03-.03-.05-.06-.08-.08l-12.67-9.19c-.35-.25-.82-.25-1.17 0l-3.96 2.87v-.64c0-.55-.45-1-1-1H14.1c-.55 0-1 .45-1 1v5.8l-1.59 1.15c-.03.02-.06.05-.08.08-.02.02-.04.03-.05.05a.8.8 0 00-.18.27c-.01.02-.01.04-.02.06-.04.11-.07.23-.07.35v18.62c0 .55.45 1 1 1h25.34c.55 0 1-.45 1-1V20.07a1.28 1.28 0 00-.08-.35zm-13.6-7.6l9.59 6.95H15.18l.8-.58 8.79-6.37zm-9.67 1.19h3.12v1.09l-2.26 1.64-.85.62v-3.35zm6.26 24.37v-8.24h6.82v8.24h-6.82zm8.82 0v-9.24c0-.55-.45-1-1-1h-8.82c-.55 0-1 .45-1 1v9.24H13.1V21.07h23.34v16.62h-6.26z"/></svg>