<svg version="1.1" id="Layer_1" xmlns="http://www.w3.org/2000/svg" x="0" y="0" width="50" height="50" xml:space="preserve"><style>.st0{fill:#aaa}</style><path class="st0" d="M38.3 21.9c.5 0 1-.5 1-1v-3.8c0-.5-.5-1-1-1h-2.2L25.4 8.5c-.4-.2-.8-.2-1.1 0l-10.7 7.6h-2.2c-.6 0-1 .5-1 1v3.8c0 .5.4 1 1 1h2v13.5h-2c-.6 0-1 .5-1 1v3.8c0 .5.4 1 1 1h27c.5 0 1-.5 1-1v-3.8c0-.5-.5-1-1-1h-2V21.9h1.9zM24.8 10.6l7.8 5.5H16.9l7.9-5.5zm-12.6 7.5h25v1.8h-25v-1.8zm25.1 21.1H12.2v-1.8h25.1v1.8zm-3-3.8h-19V21.9h19v13.5z"/><path class="st0" d="M25.7 31c-.1.4-.5.6-.9.6-.5 0-1-.5-1-1h-2c0 1.3.8 2.4 2 2.8v1.2h2v-1.2c1.2-.4 2-1.5 2-2.8 0-.3-.1-.5-.3-.7l-3.6-3.6c.1-.4.5-.6.9-.6.5 0 1 .5 1 1h2c0-1.3-.8-2.4-2-2.8v-1.2h-2v1.2c-1.2.4-2 1.5-2 2.8 0 .3.1.5.3.7l3.6 3.6z"/></svg>