<svg xmlns="http://www.w3.org/2000/svg" width="120" height="120"><path opacity=".4" fill="#FFF" d="M39.79 56.34c-.84-.91-1.62-2.04-2.68-2.7-.91-.57-1.9-.62-2.87-.42-.9 1.42-2.13 2.52-3.61 3.54-1.11.77-2.2.67-3.04.14-1.58 1.01-3.15 2.04-4.61 3.18-2.21 1.72-3.2 3.66-4.18 6.2-.72 1.88-1.57 3.97-3.04 5.4-.98.94-2.13 1.29-3.25 1.2a.21.21 0 01-.04.06c-.51.8-1.18 1.26-1.88 1.45.12 2.61.98 4.93 2.53 6.74 1.14.17 2.28.38 3.41.62.82.17 1.63.35 2.45.51.2.04.4.07.6.1 3.38-1.65 6.22-4.97 8.97-7.39 1.68-1.48 3.35-2.97 4.89-4.6.99-1.04 2.31-2.19 2.87-3.56-.27-.86-.56-1.69-.29-2.67.25-.9.86-1.67 1.47-2.34 1.1-1.2 2.52-2.05 3.71-3.16.12-.12.25-.2.38-.29a58.14 58.14 0 00-1.79-2.01z"/><circle opacity=".4" fill="#FFF" cx="53.33" cy="39.69" r="21.65"/><g fill="#B9A5AD"><path d="M53.33 38.33c-.92 0-1.67-.75-1.67-1.67h-3.33c0 2.17 1.4 4 3.33 4.69v1.97H55v-1.97c1.93-.69 3.33-2.52 3.33-4.69 0-.44-.17-.87-.49-1.18l-6.07-6.07c.24-.63.85-1.08 1.56-1.08.92 0 1.67.75 1.67 1.67h3.33c0-2.17-1.4-4-3.33-4.69v-1.97h-3.33v1.97c-1.94.69-3.34 2.52-3.34 4.69 0 .44.17.87.49 1.18l6.07 6.07c-.23.63-.84 1.08-1.56 1.08zM40 46.67h26.67V50H40zm21.67-13.34h6.67v3.33h-6.67zm-23.34 0H45v3.33h-6.67zM60 40h8.33v3.33H60zm-23.33 0H45v3.33h-8.33zm11.66 13.33h10v3.33h-10zm26.29 23.93l-2.56 2.14 8.33 10c.3.36.74.58 1.21.6h.07c.44 0 .87-.17 1.18-.49l18.33-18.33-2.36-2.36-17.04 17.04-7.16-8.6z"/><path d="M65 68.33v30c0 .92.74 1.67 1.67 1.67h30c.92 0 1.67-.74 1.67-1.67V81.67H95v15H68.33V70h23.33v-3.33h-25c-.92 0-1.66.74-1.66 1.66z"/><path d="M108.33 10H21.67c-.93 0-1.67.74-1.67 1.67v50.98l-7.79 7.79A7.494 7.494 0 0010 75.78c0 4.17 3.39 7.56 7.56 7.56.85 0 1.66-.17 2.44-.44v25.44c0 .92.74 1.67 1.67 1.67h86.67c.92 0 1.67-.74 1.67-1.67V11.67c-.01-.93-.75-1.67-1.68-1.67zm-95 65.78c0-1.13.44-2.19 1.24-2.99l8.28-8.28 5.25-5.25c1.68 2.27 3.71 4.3 5.98 5.98L20.61 78.7c-.04.04-.09.07-.12.11-.79.76-1.83 1.19-2.93 1.19-2.33 0-4.23-1.9-4.23-4.22zm28.12-19.73c-.35-.26-.71-.53-1.04-.81-.83-.7-1.6-1.48-2.31-2.31-.28-.34-.55-.69-.81-1.04-2.47-3.33-3.95-7.43-3.95-11.89 0-11.03 8.97-20 20-20s20 8.97 20 20-8.97 20-20 20c-4.46 0-8.56-1.48-11.89-3.95zm-5.39-.42c.52.57 1.06 1.12 1.64 1.64.18.16.34.33.52.48l-3.61 3.61c-.16-.14-.31-.28-.46-.42a26.564 26.564 0 01-2.18-2.23l3.61-3.61c.15.19.32.36.48.53zm70.61 51.04H23.33V80.69l14.51-14.51c.36-.36.53-.86.48-1.36-.06-.51-.34-.96-.77-1.23-.09-.06-.17-.13-.27-.19l3.66-3.66c3.59 2.26 7.83 3.59 12.38 3.59 12.87 0 23.33-10.47 23.33-23.33S66.2 16.67 53.33 16.67 30 27.13 30 40c0 4.55 1.33 8.79 3.59 12.38l-3.66 3.66c-.06-.09-.13-.17-.19-.27-.27-.43-.72-.71-1.22-.77-.49-.05-1 .12-1.36.48l-3.82 3.82V13.33h83.33v93.34z"/></g></svg>