<svg xmlns="http://www.w3.org/2000/svg" width="120" height="120"><path opacity=".4" fill="#FFF" d="M22.38 83.79h86.06v9.67H22.38zm30.64-38.96h24.05v.8c2.77-2.95 4.48-6.91 4.48-11.28 0-9.11-7.39-16.5-16.5-16.5s-16.5 7.39-16.5 16.5c0 4.37 1.71 8.32 4.48 11.28v-.8zM34.13 61.35L20.9 72.33l.84 11.46h86.7V71.94L95.49 59.58z"/><path fill="#A0C6C4" d="M34.09 45.23c-3.16 0-6.19-1.81-7.59-4.87a8.28 8.28 0 01-.23-6.37 8.297 8.297 0 014.34-4.67c4.18-1.91 9.13-.06 11.04 4.11a8.28 8.28 0 01.23 6.37 8.328 8.328 0 01-4.34 4.67c-1.12.51-2.29.76-3.45.76zm-.02-12.67c-.6 0-1.21.13-1.79.39a4.34 4.34 0 00-2.14 5.74 4.34 4.34 0 005.74 2.14 4.285 4.285 0 002.26-2.43c.4-1.08.36-2.26-.12-3.31a4.35 4.35 0 00-3.95-2.53zm30.74 6.99a1.83 1.83 0 01-1.83-1.83h-3.67c0 2.39 1.54 4.4 3.67 5.16v2.17h3.67v-2.17c2.13-.76 3.67-2.78 3.67-5.16 0-.49-.19-.95-.54-1.3l-6.68-6.68c.26-.69.93-1.19 1.72-1.19 1.01 0 1.83.82 1.83 1.83h3.67c0-2.39-1.54-4.4-3.67-5.16v-2.17h-3.67v2.17c-2.13.76-3.67 2.78-3.67 5.16 0 .49.19.95.54 1.3l6.68 6.68a1.84 1.84 0 01-1.72 1.19z"/><path fill="#A0C6C4" d="M47.19 29.06a18.09 18.09 0 012.02-4.58l-.61.28c-.94-1.11-1.99-2.09-3.15-2.95l1.38-3.69c.39-1.04-.14-2.19-1.18-2.57l-6.3-2.35a1.98 1.98 0 00-1.53.05c-.48.22-.86.62-1.04 1.12l-1.4 3.76a18.43 18.43 0 00-3.93.15l-1.67-3.65c-.46-1-1.65-1.45-2.65-.99L21 16.42c-.48.22-.86.62-1.04 1.12-.19.5-.17 1.05.05 1.53l1.67 3.65c-1.04.9-1.97 1.91-2.79 3.01l-3.86-1.44a2 2 0 00-2.57 1.18l-2.24 6c-.19.5-.17 1.05.05 1.53.22.48.62.86 1.12 1.04l3.81 1.42c-.13 1.5-.08 2.99.15 4.48l-3.49 1.6c-.48.22-.86.62-1.04 1.12-.19.5-.17 1.05.05 1.53l2.66 5.82c.46 1 1.65 1.45 2.65.99l3.49-1.6c1 1.18 2.14 2.22 3.39 3.12l-1.45 3.9c-.39 1.04.14 2.19 1.18 2.57l6 2.24c.23.08.46.13.7.13.11 0 .21-.02.31-.03l1.64-1.73.42-.87.45-1.2h-4.36c-1.1 0-2-.9-2-2 0-.69.35-1.3.89-1.66l.53-1.44a1.99 1.99 0 00-.86-2.42 14.86 14.86 0 01-4.6-4.22 1.998 1.998 0 00-2.46-.66l-3.11 1.42-1-2.18 3.11-1.42c.87-.4 1.34-1.36 1.11-2.29-.5-2.02-.56-4.09-.2-6.14.17-.95-.37-1.88-1.27-2.22L14.67 31l.84-2.25 3.46 1.29c.9.33 1.9-.01 2.4-.83a14.67 14.67 0 013.96-4.27c.77-.56 1.04-1.58.65-2.45l-1.49-3.26 2.48-1.13 1.49 3.26c.4.87 1.35 1.33 2.28 1.12 1.85-.44 3.76-.51 5.67-.21.94.14 1.85-.39 2.18-1.28l1.25-3.34 2.56.95-1.23 3.3c-.33.9.01 1.91.83 2.41 1.72 1.05 3.2 2.43 4.38 4.1.2.28.48.5.81.65z"/><path fill="#A0C6C4" d="M53.6 43.48a14.584 14.584 0 01-3.45-9.43c0-8.09 6.58-14.67 14.67-14.67s14.67 6.58 14.67 14.67c0 3.59-1.3 6.88-3.45 9.43h4.48c1.67-2.76 2.64-5.98 2.64-9.43 0-10.11-8.22-18.33-18.33-18.33-10.11 0-18.33 8.22-18.33 18.33 0 3.45.98 6.67 2.64 9.43h4.46z"/><g fill="#A0C6C4"><path d="M109.36 71.42L98.17 59.59l-1.07-2.2h4.56c1.1 0 2-.9 2-2s-.9-2-2-2h-6.5l-4.24-8.77a1.993 1.993 0 00-1.8-1.13H40.48c-.77 0-1.47.44-1.8 1.13l-4.3 8.9h-6.42c-1.1 0-2 .9-2 2s.9 2 2 2h4.49l-1 2.07-11.18 11.83c-.35.37-.55.86-.55 1.37v16.7c0 3.37 2.74 6.1 6.1 6.1h.14v4.83c0 3.59 2.92 6.51 6.51 6.51h3.32c3.59 0 6.51-2.92 6.51-6.51V95.6h45.03v4.83c0 3.59 2.92 6.51 6.51 6.51h3.32c3.59 0 6.51-2.92 6.51-6.51V95.6h.14c3.37 0 6.1-2.74 6.1-6.1V72.8c-.01-.51-.2-1-.55-1.38zM41.73 47.48h46.14l5.44 11.25H36.3l5.43-11.25zM23.72 73.59l10.26-10.86h61.66l10.26 10.86v8.33H80.23l-3.3-10.21a1.996 1.996 0 00-1.9-1.38H54.6c-.87 0-1.64.56-1.9 1.38l-3.3 10.21H23.72v-8.33zm52.3 8.33H53.6l2.46-7.59h17.51l2.45 7.59zM38.3 100.43c0 1.38-1.12 2.51-2.51 2.51h-3.32c-1.38 0-2.51-1.12-2.51-2.51V95.6h8.34v4.83zm61.36 0c0 1.38-1.12 2.51-2.51 2.51h-3.32c-1.38 0-2.51-1.12-2.51-2.51V95.6h8.34v4.83zm6.24-10.93a2.1 2.1 0 01-2.1 2.1H25.82a2.1 2.1 0 01-2.1-2.1v-3.58h82.18v3.58z"/><path d="M44.02 71.94h-12.3c-1.1 0-2 .9-2 2s.9 2 2 2h12.29c1.1 0 2-.9 2-2s-.89-2-1.99-2zm41.38 4h12.3c1.1 0 2-.9 2-2s-.9-2-2-2H85.4c-1.1 0-2 .9-2 2s.9 2 2 2z"/></g></svg>