<svg xmlns="http://www.w3.org/2000/svg" width="120" height="120"><circle opacity=".4" fill="#FFF" cx="89.75" cy="35.5" r="16.07"/><path opacity=".4" fill="#FFF" d="M64.84 24.04c-2.8-4.61-6.23-9.23-10.6-12.47-4.63-3.44-9.49-2.95-14.97-2.82-.8.02-1.6 0-2.4-.01-.07.04-.13.09-.21.13-3.72 1.8-7.79 3.48-10.97 6.18-1.5 1.28-2.61 2.74-3.46 4.33-.42 2.28-1.24 4.51-2.08 6.64-.29.73-.71 1.25-1.19 1.63.93 9.11-.08 18.25.06 27.37.51.11 1.02.26 1.54.47.46-.31.97-.53 1.48-.61.76-.11 1.44.04 2.02.38.42-.54 1-.96 1.7-1.15 1.41-.39 2.83-.71 4.24-1.08.55-.14 1.1-.29 1.65-.47.05-.02.4-.15.59-.21.15-.07.37-.17.41-.19.26-.13.49-.31.75-.44.03-.02.04-.02.06-.03.02-.02.02-.03.05-.06.15-.17.37-.39.54-.54.04-.03.05-.04.08-.06.02-.03.03-.06.06-.11.75-1.31 1.02-1.97 1.45-3.73.36-1.46 1.45-2.2 2.64-2.34.07-.28.21-.54.37-.79-1.78-.34-3.46-1.08-5.01-2.23-3.07-2.28-6.16-5.93-6.19-9.96-.03-3.38 2.24-5.89 5.08-7.4 1.18-.63 2.41-1.12 3.62-1.69.61-.29 1.21-.58 1.79-.92.28-.17.55-.35.82-.52.08-.07.17-.14.25-.22 1.35-1.21 3.38-1.34 4.72 0 .46.46.77 1.08.89 1.73a15.4 15.4 0 012.78-.48c3.28-.25 6.21 1.37 8.06 4.02 1.77 2.53 1.67 5.66.4 8.37-.17.36-.4.68-.6 1.02-1.31 2.98-3.71 5.58-6.32 7.37-.86.59-1.82 1.05-2.81 1.39.93.14 1.79.6 2.28 1.49 1.11 2.04 1.71 4.28 2.02 6.56 3.61-.83 7.91-.3 9.08 3.84.06.2.08.41.12.62.59-.48 1.18-.96 1.79-1.41.25-.22.5-.45.72-.71.28-.39.55-.8.77-1.23.3-.5.7-.9 1.2-1.2l.8-.34c.2-.05.41-.06.61-.08V24.79c-.28-.21-.5-.45-.68-.75zm34.4 50.51c-1.3-.67-2.56-.78-3.83-.52-3.63.76-6.74 3.42-9.45 5.82-2.78 2.47-5.35 5.21-8.27 7.53-.03.85-.35 1.69-.96 2.28-.33.32-.66.65-.96 1l-.36.42c-.02.02-.03.03-.04.05-.01.01-.01.02-.02.04-.45.7-.92 1.37-1.32 2.1-.2.37-.39.74-.57 1.12-.08.17-.16.34-.23.51-.02.04-.02.05-.04.08 0 .01 0 .01-.01.03-.28.75-.57 1.5-.82 2.27-.62 1.92-1.11 3.87-1.58 5.83-.02.44-.05.88-.05 1.33 0 .04 0 .09.01.13h4.09c.46-.31.95-.59 1.45-.85 1.32-.67 2.71-1.21 3.91-2.09.63-.47 1.53-.51 2.3-.38 4.89-4.07 10.43-7.31 15.05-11.7 1.43-1.36 3.24-3.14 4.46-5.13v-7.6a8.822 8.822 0 00-2.76-2.27z"/><g fill="#C0AD83"><path d="M100.61 86.61c3.1-3.1 3.1-8.13 0-11.22-3.1-3.1-8.13-3.1-11.22 0l-.36.36H70.5v3.5h15.03L74.51 90.26c-.01.01-.01.02-.02.03-.13.14-.24.3-.32.48-.02.05-.04.09-.06.14-.01.04-.04.07-.05.11l-3.5 12.25c-.17.61 0 1.27.44 1.72a1.756 1.756 0 001.72.44l12.25-3.5c.04-.01.07-.04.11-.05.05-.02.09-.04.13-.06.18-.08.35-.19.49-.32.01-.01.02-.01.02-.02l14-14 .89-.87zm-2.47-8.75a4.438 4.438 0 01.34 5.89l-6.23-6.23a4.439 4.439 0 015.89.34zM74.8 101.2l1.82-6.36 4.54 4.54-6.36 1.82zm9.7-3.42l-6.28-6.28 11.53-11.53 6.28 6.28L84.5 97.78z"/><path d="M112.39 68.19c-.02-.06-.03-.11-.06-.17a1.75 1.75 0 00-.34-.51l-10.5-10.5s-.01 0-.01-.01c-.15-.15-.32-.25-.5-.34-.05-.02-.11-.04-.16-.06-.15-.05-.3-.08-.46-.09-.04 0-.07-.02-.1-.02H69.04c-.66-.61-1.34-1.18-2.04-1.71V32C67 18.49 56.01 7.5 42.5 7.5S18 18.49 18 32v22.8C11.64 59.59 7.5 67.19 7.5 75.75V88c0 .97.78 1.75 1.75 1.75H63.5v21c0 .97.78 1.75 1.75 1.75h45.5c.97 0 1.75-.78 1.75-1.75v-42c0-.04-.02-.07-.02-.11-.01-.15-.04-.3-.09-.45zM106.52 67H102v-4.53l4.52 4.53zM21.5 32c0-11.58 9.42-21 21-21s21 9.42 21 21v20.53a26.107 26.107 0 00-12.25-3.03v-4.35C56.47 41.81 60 35.61 60 28.5c0-.53-.24-1.03-.66-1.37l-8.75-7a1.76 1.76 0 00-1.88-.2l-3.6 1.8.83-3.31a1.75 1.75 0 00-2.6-1.92L25.85 27c-.53.32-.85.88-.85 1.5 0 7.11 3.53 13.31 8.75 16.65v4.35c-4.42 0-8.59 1.11-12.25 3.05V32zm19.91-5.64c.53.43 1.27.5 1.88.2l6-3 7.2 5.76c-.27 5.84-3.39 10.84-7.81 13.3-.01 0-.01 0-.02.01-.47.26-.96.49-1.45.69l-.09.03c-.46.18-.93.34-1.41.46l-.12.03c-.5.13-1 .23-1.5.29h-.02c-1.04.13-2.1.13-3.14 0-.01 0-.02 0-.03-.01-.5-.06-1-.16-1.49-.29l-.12-.03c-.47-.13-.94-.28-1.41-.46l-.09-.03c-.49-.2-.97-.43-1.45-.69-.01 0-.02-.01-.02-.01-4.38-2.44-7.48-7.37-7.8-13.14l13-7.8-.73 2.9c-.15.67.08 1.37.62 1.79zm-4.16 24.89v-4.39c.18.06.37.1.55.16.31.1.62.19.94.27.21.05.42.09.63.13.32.06.65.12.97.16.2.03.4.06.6.08.46.05.92.07 1.38.08.06 0 .12.01.18.01s.12-.01.18-.01c.46-.01.92-.03 1.38-.08.2-.02.4-.05.6-.08.33-.04.65-.1.97-.16.21-.04.42-.08.63-.13.32-.08.63-.17.94-.27.18-.06.37-.1.55-.16v4.39c0 .97.78 1.75 1.75 1.75h1.75c2.39 0 4.73.38 6.94 1.09-.55 5.28-5.02 9.41-10.44 9.41h-10.5c-5.42 0-9.89-4.13-10.44-9.41C29 53.39 31.33 53 33.75 53h1.75c.97 0 1.75-.78 1.75-1.75zM11 86.25v-10.5c0-8.85 5.09-16.51 12.48-20.27C24.66 62.02 30.38 67 37.25 67h10.5c6.88 0 12.6-4.99 13.77-11.54.88.45 1.73.94 2.55 1.5-.01.01-.01.02-.02.03-.11.1-.19.24-.27.37-.04.07-.1.12-.13.19-.09.22-.15.45-.15.7v28H11zM67 109V60h31.5v8.75c0 .97.78 1.75 1.75 1.75H109V109H67z"/><path d="M70.5 65.25H95v3.5H70.5zm19.25-24.5c-.96 0-1.75-.78-1.75-1.75h-3.5c0 2.28 1.47 4.2 3.5 4.93V46h3.5v-2.07C93.53 43.2 95 41.28 95 39c0-.47-.18-.91-.51-1.24l-6.38-6.38c.25-.66.89-1.14 1.64-1.14.96 0 1.75.78 1.75 1.75H95c0-2.28-1.47-4.2-3.5-4.93V25H88v2.07c-2.03.72-3.5 2.65-3.5 4.93 0 .47.18.91.51 1.24l6.38 6.38c-.25.66-.89 1.13-1.64 1.13z"/><path d="M72.25 35.5c0 9.65 7.85 17.5 17.5 17.5s17.5-7.85 17.5-17.5S99.4 18 89.75 18s-17.5 7.85-17.5 17.5zm17.5-14c7.72 0 14 6.28 14 14s-6.28 14-14 14-14-6.28-14-14 6.28-14 14-14zm0 78.75h15.75v3.5H89.75zm10.5-10.5h5.25v3.5h-5.25z"/></g></svg>