<svg xmlns="http://www.w3.org/2000/svg" width="120" height="120"><path opacity=".4" fill="#FFF" d="M14.71 42.89v55.33h9.68V84.74h6.69v13.48h10.61V42.89zM48.33 32.7v65.52h10.84V84.74h10.92v13.48h11.22V32.7zm39.61 23.22v42.3h6.57V84.74h5.46v13.48h6.37v-42.3z"/><path fill="#C0B4A6" d="M5 96.22h110v4H5z"/><path fill="#C0B4A6" d="M43.69 100.22H12.21V40.03h31.48v60.19zm-27.48-4h23.48V44.03H16.21v52.19z"/><path d="M21.1 51.74h3.97v8.35H21.1zm9.98 0h3.97v8.35h-3.97zM21.1 64.52h3.97v8.35H21.1zm9.98 0h3.97v8.35h-3.97zm2 35.7H22.83V82.74h10.25v17.48zm-6.25-4h2.25v-9.47h-2.25v9.47zm16.86-52.19H12.21V34.02h31.48v10.01zm-27.48-4h23.48v-2.01H16.21v2.01zm67.1 60.19h-37V30.7h37v69.52zm-32.99-4h29V34.7h-29v61.52z" fill="#C0B4A6"/><path fill="#C0B4A6" d="M72.86 100.22H56.78V82.74h16.08v17.48zm-12.08-4h8.08v-9.47h-8.08v9.47z"/><path fill="#C0B4A6" d="M62.82 84.74h4v13.47h-4zm-4.98-45.4h3.97v8.35h-3.97zm9.98 0h3.97v8.35h-3.97zm-9.98 12.78h3.97v8.35h-3.97zm9.98 0h3.97v8.35h-3.97zm-9.98 12.79h3.97v8.35h-3.97zm9.98 0h3.97v8.35h-3.97zm9.41-30.21H52.41v-9.43h24.82v9.43zm-20.82-4h16.82v-1.43H56.41v1.43z"/><path fill="#C0B4A6" d="M70.07 29.27H59.56v-9.49h10.51v9.49zm-6.51-4h2.51v-1.49h-2.51v1.49zm44.64 74.95H85.94V46.74h22.26v53.48zm-18.26-4h14.26V50.74H89.94v45.48z"/><path fill="#C0B4A6" d="M102.19 100.22H91.95V82.74h10.25v17.48zm-6.24-4h2.25v-9.47h-2.25v9.47zm-.86-35.9h3.97v8.35h-3.97zm0 12.78h3.97v8.35h-3.97zm13.11-16.36H85.94v-10h22.26v10zm-18.26-4h14.26v-2.01H89.94v2.01z"/></svg>