<svg xmlns="http://www.w3.org/2000/svg" width="120" height="120"><path opacity=".4" fill="#FFF" d="M60 9.09L13.32 33.86l.88 68.91h35.53c.2-.9.44-1.8.74-2.69.73-2.17 1.68-4.28 2.7-6.34.57-1.14 1.65-1.77 2.83-1.96.09-.45.25-.87.47-1.25-.39-.16-.77-.35-1.12-.57-.62-.41-1.27-.89-1.76-1.46-.85-1-1.49-2.04-1.97-3.21-2.12 2.22-4.48 4.21-6.72 6.3-.92.86-2.28.97-3.28.2-.44-.34-.72-.77-.89-1.3-.18-.55-.09-1.44.25-1.92.12-.18.27-.33.4-.5l-.01-.01.06-.06c1.09-1.46 2.33-2.77 3.65-4.02.68-.64 1.36-1.28 2.02-1.95.32-.33.64-.66.95-1.01.15-.17.3-.35.44-.52.02-.02.06-.07.09-.12.01-.01.02-.02.02-.03l.01-.01c.04-.06.06-.07.02-.02.05-.06.1-.1.15-.16-.89.09-1.79.17-2.68.25-3.49.75-7.28.72-10.78.72-1.4 0-2.44-.55-3.12-1.37-.47.4-1.06.71-1.82.83-.39.06-.77.1-1.13.11 0 .01 0 .03.01.04-1.31 0-2.61-.02-3.91-.2-2.15-.28-3.81-1.41-4.15-3.66-.17-1.13.18-2.29.87-3.18-.14-1.01-.17-2.07-.09-3.13.24-2.93 1.41-5.33 3.22-7.6 1.3-1.63 3.3-3.11 3.89-5.17.22-.76.58-1.34 1.03-1.8-3.03-1.74-5.4-4.44-6.31-7.97-1.01-3.94-.46-8.35 1.54-11.89 2.18-3.86 6.25-6.38 10.69-5.45.21-.1.4-.22.61-.31 3.45-1.45 7.31-.89 10.26 1.29l2.2-1.1c.33-.16.67-.24 1.01-.28.46-1.32 1.68-2.05 3.06-1.73 1.26.29 2.17 1.83 1.74 3.07-1.29 3.77-4.53 6.23-7.6 8.53-.37.28-.88.35-1.36.33-.82.45-1.67.87-2.56 1.18-.04.02-.09.02-.13.03 2.77 3.39 3.57 8.99.98 12.65-1.66 2.35-4.25 3.46-6.95 3.58.02.09.02.2.03.29.11-.07.21-.16.34-.21 1.06-.47 2.57-.08 3.12 1.02.05.1.09.21.14.31h.02c.49-1.33 2.41-1.78 3.64-1.2 4.61 2.16 6.62 7.69 6.05 12.49.08.06.15.13.22.2.28.16.55.33.83.51 3.53-.5 7.09-1.12 10.63-1.1.74 0 1.47.05 2.21.12.04-2.31.27-4.67.94-6.87 0-.01-.01-.03-.01-.04-2.48-.29-4.7-1.63-5.96-4.06-1.4-2.72-1.67-5.95-1.5-8.96.18-3.21.92-5.93 2.2-8.89.88-2.03 1.9-4.01 2.84-6.01.62-1.33 1.39-2.68 2.48-3.68 2.57-2.36 5.8-1.81 8.97-1.64 3.14.17 6.26.21 9.38.71 3.34.54 5.92 2.15 7.61 5.13 1.69 2.98 2.52 6.45 3.21 9.78.73 3.49 1.41 6.92.77 10.48-.41 2.28-1.49 4.32-2.93 6.1.27.54.51 1.08.71 1.59 1.49 3.84 1.99 8.43 1.81 12.53-.08 1.7-1.24 3.79-3.1 4.07-5.05.76-10.04.81-15.12.23-2.87-.33-5.77-1-8.66-1.5.09.24.18.48.24.72.12.51.18 1.05.22 1.56.01.18.02.35 0 .53-.05.73-.14 1.51-.4 2.21-.28.74-.58 1.49-1.05 2.13-.52.71-1.04 1.4-1.72 1.96-.63.53-1.32 1.07-2.06 1.46.25.32.47.67.63 1.04 1.17.98 2.13 2.06 2.96 3.41.88 1.42 1.54 3 2.1 4.57.44 1.23.79 2.52 1.01 3.83h35.73l.59-68.62L60 9.09zm18.13 82.3c-.42.46-1.15.73-1.76.73-.7 0-1.24-.3-1.76-.73-1.79-1.49-2.69-3.65-4.02-5.5-.27-.33-.55-.66-.86-.95-1.03-.94-.88-2.57 0-3.53.42-.46 1.15-.73 1.76-.73.67 0 1.28.29 1.76.73.94.87 1.7 1.95 2.37 3.04.49.79.96 1.6 1.5 2.36.31.38.64.74 1.02 1.05.5.42.7 1.14.73 1.76.02.67-.3 1.3-.74 1.77z"/><path fill="#A6B9CE" d="M59.15 7.51L12.92 31.55l-7.37 3.68 1.65 3.31 4.72-2.36v67.27c0 1.02.83 1.85 1.85 1.85h33.28v5.55c0 1.02.83 1.85 1.85 1.85h22.19c1.02 0 1.85-.83 1.85-1.85v-5.55h33.28c1.02 0 1.85-.83 1.85-1.85V36.18l4.72 2.36 1.65-3.31-7.37-3.68L60.85 7.51c-.53-.28-1.17-.28-1.7 0zM69.24 109H50.75v-7.4c0-3.51 1.95-6.66 5.04-8.23 1.3.53 2.72.83 4.2.83s2.9-.3 4.2-.83a9.193 9.193 0 015.04 8.23v7.4zM49.03 84.73c-.47 1.04-1.24 2.12-2.21 3.09-1.18 1.18-2.54 2.09-3.74 2.49-1 .33-1.44.17-1.49.13-.07-.07-.18-.57.13-1.49.4-1.2 1.31-2.56 2.49-3.74 1-1 2.12-1.78 3.17-2.24h.01c.58-.26 1.12-.39 1.54-.41-.01.19-.02.38-.02.57 0 .5.04.99.11 1.47 0 .03 0 .08.01.13zM26.72 36.21c.56-.87 2.67-3.8 6.31-4.76 2.24-.58 3.16-.11 4.55.6 1.62.84 3.64 1.88 7.5 1.29 3.51-.54 5.84-2.1 7.38-3.12.13-.09.28-.19.43-.29.01.7-.11 1.81-.59 3.24-.94 2.8-2.66 5.02-4.59 5.92-.4.18-1.2.26-2.31.26h-.05c-1.71 0-4.21-.16-7.76-.42h-.06c-2.2-.16-3.49-.31-4.3-.4-1.45-.16-1.94-.21-3 .39l-.38.21c-.41.21-.78.46-1.13.72-.11.08-.21.17-.31.25-.24.2-.46.4-.67.61-.09.1-.19.19-.28.29-.23.26-.44.52-.64.8-.04.05-.08.1-.12.16-.22.32-.41.64-.59.97-.08.14-.15.28-.22.42-.1.2-.19.4-.28.59l-.21.48c-.07.16-.13.32-.18.48-.06.16-.12.32-.18.47-.38-2.55-.24-6.16 1.68-9.16zm14.53 20.12h-.01c-1.03.53-2.22.86-3.56 1-.45.04-.92.07-1.42.07-.48 0-.93-.03-1.38-.07-.06-.01-.13-.02-.19-.02-1.35-.16-2.55-.52-3.59-1.09-.01-.01-.03-.01-.05-.01-2.48-1.4-3.46-3.78-3.82-5.67.02-.03.03-.07.04-.1.34-.64.56-1.4.75-2.1.56-2.02 1.33-4.79 3.53-5.94.21-.11.37-.2.5-.27l.03-.01c.17.01.4.04.75.08.21.02.45.05.72.08.83.09 2.01.2 3.71.33 3.01.22 5.27.38 7.07.43.76 1.42 1.16 3.17 1.16 5.12.01 2.07-.5 6.21-4.24 8.17zm-11.18 3.51c.23.11.47.18.71.28.25.1.5.21.76.29.59.19 1.21.33 1.84.44.2.04.41.06.61.09a16.469 16.469 0 003.8.09c.14-.01.27-.04.41-.05.36-.04.72-.09 1.07-.15.13-.02.26-.06.4-.09.35-.07.7-.16 1.03-.25l.29-.09c.38-.12.74-.25 1.09-.4.02-.01.05-.02.07-.03 4.07 1.75 6.75 5.75 6.75 10.19v1.19c-.04.05-.06.1-.09.15-.34.47-.65.96-.9 1.49-.02.05-.04.1-.06.16-.23.51-.42 1.04-.57 1.6-.03.1-.06.19-.08.29-.15.62-.26 1.25-.31 1.91v.09c-.04.67-.03 1.36.03 2.06v.07c-.05.01-.09.01-.14.03-.13.04-.27.12-.41.17a.3.3 0 00-.1.04H23.02v-9.24c0-4.61 2.8-8.68 7.05-10.33zM60 70.17h.2c.95-.03 2.05.05 3.17.32a9.5 9.5 0 011.37.45c.33.13.64.29.94.46.08.04.15.08.23.13.3.18.57.39.83.6.06.05.13.09.19.14.3.26.57.55.82.85.02.02.04.04.05.06v.01c.34.43.62.9.86 1.4.06.12.1.24.16.36.18.43.34.88.44 1.35.02.08.04.16.06.25.11.58.18 1.18.18 1.79-.02-.02-.05-.04-.07-.06-.26-.28-.55-.55-.86-.77-.04-.03-.08-.05-.11-.07-.28-.2-.59-.37-.9-.53-.1-.05-.19-.09-.29-.14-.31-.14-.63-.26-.96-.37-.05-.01-.09-.04-.14-.05-.38-.11-.76-.2-1.15-.28l-.31-.06c-.31-.05-.62-.1-.94-.14l-.27-.03c-.38-.04-.76-.07-1.13-.09-.08 0-.16-.01-.24-.01l-.9-.03h-.3c-.33-.01-.64-.01-.93-.01h-.91c-.13 0-.25 0-.38.01-.22 0-.45.01-.68.02-.16.01-.31.01-.48.02-.31.02-.63.04-.95.07-.21.02-.43.05-.64.08l-.43.06-.7.12c-.11.02-.21.05-.32.08-.4.09-.8.21-1.18.35-.15.06-.3.11-.45.17-.18.08-.35.16-.53.25-.19.1-.38.21-.56.32-.12.08-.25.15-.37.23-.29.21-.57.46-.82.72-.02.02-.04.03-.05.05-.02-.62.02-1.22.12-1.79.02-.13.06-.26.09-.4.09-.41.22-.81.37-1.18.06-.13.1-.26.17-.39.23-.46.5-.89.83-1.26.12-.11 2.84-3.06 7.87-3.06zm33.33-9.32c-.07-.14-.17-.27-.24-.41-.32-.62-.66-1.19-1.03-1.72-.13-.19-.3-.35-.49-.47l-.17-.11a45.465 45.465 0 00-1.64-1.06c-.36-.22-.73-.44-1.13-.66l-.28-.17c1.24-1.62 2.05-3.63 2.38-5.97.01-.04.01-.08.01-.12.1-.74.16-1.51.16-2.31 0-2.57-.56-4.32-1.77-5.52-1.95-1.93-4.88-1.91-9.36-1.88l-1.82.01-1.82-.01c-4.47-.03-7.41-.05-9.36 1.88-1.21 1.2-1.77 2.95-1.77 5.52 0 .82.06 1.6.17 2.35.01.04.01.09.02.13.34 2.38 1.18 4.42 2.47 6.05-.14.07-.26.14-.4.22-.06.04-.13.07-.19.1-.3.16-.57.32-.8.46-.18.11-.34.24-.47.39-.42.5-.8 1.03-1.16 1.57-.06.1-.13.2-.19.3-.35.55-.68 1.12-.96 1.71-.14-.03-.66-.23-1.69-1.31-1.82-1.93-1.85-10.1.85-18.15 1.96-5.85 4.78-9.76 7.36-10.19.08-.01.16-.02.43-.02.2 0 .5 0 .98.01 1 .01 2.69.03 5.68.04 3.23 0 4.93-.01 5.91-.02.83-.01 1.06-.02 1.32.01 2.46.23 5.23 3.38 7.41 8.42 3.56 8.23 4.22 17.69 2.4 20.04-.35.45-.61.72-.81.89zm-11.84-4.24c-.07.02-.15.04-.23.06-.4.11-.83.2-1.28.27-.11.02-.22.04-.33.05-.54.07-1.1.11-1.69.11-.64 0-1.24-.05-1.82-.13-.13-.02-.24-.04-.36-.06-.54-.09-1.06-.2-1.54-.36-.01 0-.03-.01-.04-.01-.54-.18-1.05-.41-1.51-.68-.01-.01-.02-.01-.03-.02-.47-.27-.9-.59-1.29-.96-.01-.01-.01-.01-.02-.01-.01-.01-.03-.02-.04-.04-.07-.07-.13-.14-.2-.21-.15-.16-.31-.32-.45-.5-.07-.08-.12-.17-.19-.25-.12-.17-.24-.34-.36-.52-.06-.11-.12-.21-.18-.32-.09-.17-.18-.34-.26-.51-.06-.13-.12-.26-.17-.38-.07-.16-.13-.34-.19-.51-.06-.19-.13-.38-.18-.57-.06-.21-.11-.43-.16-.65-.03-.15-.06-.29-.08-.44-.04-.23-.07-.47-.1-.71l-.03-.28c-.03-.37-.05-.74-.05-1.12 0-1.48.23-2.45.67-2.9.1-.1.23-.18.37-.26.04-.02.1-.04.15-.06.11-.05.23-.1.36-.14.06-.02.13-.04.2-.05.14-.04.29-.07.45-.09.07-.01.14-.03.22-.04.18-.03.38-.05.58-.07.06-.01.12-.01.18-.02 1.16-.09 2.6-.09 4.21-.07l1.84.01 1.84-.01c3.28-.02 5.87-.04 6.73.81.45.45.67 1.42.67 2.9 0 .23-.01.47-.02.72-.01.12-.01.24-.02.37l-.03.3c-.15 1.43-.6 3.2-1.72 4.7-.1.13-.2.27-.31.4-.08.09-.16.17-.25.26-.21.21-.42.42-.66.61-.04.03-.07.06-.11.09-.72.56-1.59.99-2.57 1.29zm-15.9 10.67c.13-1.63.61-3.21 1.34-4.67.16-.32.31-.64.49-.94.28-.47.6-.93.94-1.36.03-.04.05-.08.08-.11.51-.3.98-.54 1.44-.78.14-.07.28-.14.42-.2.15-.07.29-.13.44-.19.48.28 1 .53 1.53.75l.06.03c.52.21 1.06.38 1.63.53.11.03.23.05.34.07.44.1.88.18 1.35.24.17.02.34.05.51.06a16.03 16.03 0 003.66-.01l.47-.06c.55-.07 1.09-.17 1.61-.3.03-.01.07-.01.1-.02.61-.16 1.19-.36 1.75-.59.01 0 .01 0 .01-.01.57-.23 1.11-.5 1.62-.81l.15.06c.64.31 1.24.63 1.81.97.12.07.23.14.34.21.53.32 1.03.65 1.51.96.01.01.02.01.04.02.05.08.1.17.15.25.19.3.36.6.52.91.19.37.37.76.55 1.19.01.01.02.02.02.04.62 1.53.97 3.14.97 4.8v11.09h-17.7c-.03-.01-.06-.02-.1-.04-.14-.05-.28-.13-.41-.17-.02-.01-.03-.01-.05-.01.1-1.51-.06-2.99-.46-4.38-.01-.05-.03-.1-.04-.14-.2-.64-.44-1.26-.75-1.86-.05-.1-.1-.19-.15-.28-.31-.58-.66-1.14-1.07-1.65-.01-.01-.01-.01-.01-.02-.04-.05-.09-.09-.13-.14-.27-.33-.56-.65-.87-.94a7.57 7.57 0 00-.54-.45c-.19-.16-.38-.33-.58-.48-.22-.16-.45-.3-.68-.44-.19-.12-.38-.24-.58-.35-.24-.13-.49-.24-.73-.36-.22-.1-.44-.2-.67-.29-.13-.03-.22-.09-.33-.13zM52.6 83.11c0-.42.04-.8.12-1.17.26-1.2 1.05-1.88 2.84-2.23.01 0 .02 0 .03-.01.31-.06.67-.11 1.05-.15l.23-.03c.38-.04.8-.06 1.25-.08.11-.01.22-.01.34-.01.48-.01.99-.03 1.55-.03 5.21 0 6.86.67 7.28 2.46 0 .02-.01.05 0 .07.08.37.12.75.12 1.17 0 .38-.06.75-.11 1.12-.03.2-.06.39-.12.62a7.38 7.38 0 01-3.82 4.82c-.01 0-.01 0-.02.01-2.17 1.11-4.48 1.11-6.65 0-.01 0-.01 0-.02-.01-2.41-1.22-4.07-3.68-4.07-6.55zm18.38 1.48c.06-.48.11-.97.11-1.47 0-.19-.01-.38-.02-.57.31.01.81.09 1.54.41h.01c1.05.47 2.17 1.25 3.17 2.25 1.18 1.18 2.09 2.54 2.49 3.74.31.92.2 1.42.13 1.49-.05.04-.49.2-1.49-.13-1.2-.4-2.56-1.31-3.74-2.49-.97-.96-1.74-2.04-2.21-3.09.01-.05.01-.1.01-.14zm33.39 17.01H72.94c0-4.22-2.04-8.04-5.34-10.43.67-.63 1.25-1.34 1.75-2.12.38.47.77.93 1.22 1.38 1.6 1.6 3.44 2.8 5.19 3.38.8.27 1.56.4 2.26.4 1.21 0 2.24-.39 3.01-1.16 1.22-1.22 1.49-3.09.76-5.27-.52-1.56-1.55-3.19-2.9-4.66h14.39c1.02 0 1.85-.83 1.85-1.85V68.32c0-1.34-.21-2.64-.52-3.92.82-.42 1.64-1.13 2.45-2.17 3.21-4.13 1.59-15.63-1.93-23.77-1.98-4.58-5.41-10.15-10.45-10.63-.34-.04-.63-.04-1.7-.03-.97.01-2.66.02-5.87.02-2.97-.01-4.65-.02-5.64-.04-1.35-.01-1.6-.01-2.06.06-5.53.92-8.79 8.33-10.25 12.66-2.63 7.84-3.54 18.16-.04 21.87 1.09 1.16 2.15 1.88 3.17 2.23-.15.64-.26 1.28-.33 1.93-.64-.05-1.29-.08-1.96-.06-3.23 0-5.75.94-7.53 1.95-.54-4.44-3.07-8.36-6.83-10.73 2.29-2.24 3.56-5.5 3.56-9.54 0-1.95-.35-3.75-.97-5.38.38-.09.74-.2 1.05-.34 4.2-1.97 6.83-7.19 7.26-11.33.23-2.27-.25-3.91-1.38-4.77-1.67-1.25-3.38-.11-4.75.81-1.42.95-3.18 2.13-5.89 2.54-2.67.4-3.86-.21-5.24-.92-1.67-.86-3.57-1.84-7.19-.89-4.8 1.26-7.53 4.85-8.48 6.34-3.43 5.35-2.69 12.32-1.07 15.55.33.66.7 1.16 1.12 1.51.48 2.48 1.52 4.55 3.04 6.14-4.5 2.6-7.38 7.38-7.38 12.75v11.09c0 1.02.83 1.85 1.85 1.85h19.94c-1.35 1.47-2.38 3.1-2.9 4.66-.73 2.18-.46 4.05.76 5.27.77.77 1.8 1.16 3.01 1.16.7 0 1.46-.13 2.26-.4 1.75-.58 3.59-1.78 5.19-3.38.44-.44.84-.91 1.22-1.38.5.78 1.08 1.48 1.75 2.12-3.3 2.39-5.34 6.21-5.34 10.43H15.62V34.31L60 11.24l44.38 23.08v67.28z"/></svg>