<svg xmlns="http://www.w3.org/2000/svg" width="120" height="120"><path opacity=".4" fill="#FFF" d="M98.66 19.88c-.09.95-.71 1.78-1.66 2.06-1.11.33-2.27.47-3.41.62-2.34.3-5.42.59-6.92-1.64-.89-1.32-.8-3-.55-4.49.19-1.16.6-2.33 1.16-3.36.26-.48.73-.82 1.25-1.01.02-.28.1-.55.23-.83-.57-.64-1.13-1.29-1.67-1.95-.54-.67-.79-1.51-.6-2.28H17.67v106.02h85.23V22.66c-1.43-.88-2.85-1.81-4.24-2.78zm-9.17 51.17c-1.77 3.53-5.93 3.67-9.46 3.85-2.58.13-5.48.22-7.54-1.09-.64.27-1.34.51-2.14.7-5.04 1.16-11.58 1.17-16.86-.75-1.38.03-2.71-.13-3.84-.75-.24-.13-.45-.29-.63-.45a5.24 5.24 0 01-2.8 1.23c-.66.37-1.43.61-2.34.65-3.49.13-7.44 1.38-10.72-.41-4.52-2.46-3.58-7.94-3.35-12.21.22-3.89-.38-10.59 3.41-12.99 3.11-1.97 7.71-1.55 11.21-1.53 1.84.01 3.27.94 4.14 2.3.24-.74.43-1.48.51-2.24.64-6.54-.57-13.09.28-19.67.03-.23.08-.45.13-.67-.12-.68-.23-1.36-.4-2.03-.63-2.6 2.81-3.87 4.14-2.13.37-.1.76-.18 1.18-.22 4.21-.41 8.38.04 12.6-.14 2.9-.12 4.85 2.42 5.05 5.05.48 6.19.78 13.37.14 19.98 3.78.34 7.71-.45 11.43-.93 2.97-.39 4.75 2.63 5.05 5.05.65 5.13 3.3 14.45.81 19.4z"/><g fill="#A0BCC4"><path d="M89.03 46.02H73.17V22.18c0-.96-.78-1.75-1.75-1.75H48.29c-.97 0-1.75.78-1.75 1.75v23.84H30.97c-.97 0-1.75.78-1.75 1.75v26.47c0 .96.78 1.75 1.75 1.75h40.46c.05 0 .09-.02.14-.03.05 0 .09.03.14.03h17.32c.97 0 1.75-.78 1.75-1.75V47.76c0-.96-.78-1.74-1.75-1.74zm-56.32 3.49h13.83v22.97H32.71V49.51zm25.13 22.97v-9.74h4.03v9.74h-4.03zm11.84 0h-4.32V61c0-.96-.78-1.75-1.75-1.75H56.1c-.97 0-1.75.78-1.75 1.75v11.49h-4.32V23.92h19.65v48.56zm17.61 0H73.46V49.51h13.82v22.97z"/><path d="M37.51 54.16h4.23v8.91h-4.23zm40.75 0h4.23v8.91h-4.23z"/><path d="M102.96 21.42L88.34 7.33a1.77 1.77 0 00-1.19-.49l-68.88-.72c-.46.03-.91.18-1.25.5-.33.33-.52.78-.52 1.24v104.28c0 .96.78 1.75 1.75 1.75h83.51c.97 0 1.75-.78 1.75-1.75V22.67c-.01-.47-.2-.92-.55-1.25zM88.87 12.7l8.55 8.23h-8.55V12.7zm-68.88 97.69V9.63l65.39.69v12.36c0 .96.78 1.75 1.75 1.75h12.88v85.97H19.99z"/><path d="M76.86 83.26H43.72c-.97 0-1.75.78-1.75 1.75 0 .96.78 1.75 1.75 1.75h33.14c.97 0 1.75-.78 1.75-1.75s-.78-1.75-1.75-1.75zm-5.25 6.95H48.98c-.97 0-1.75.78-1.75 1.75s.78 1.75 1.75 1.75h22.63c.97 0 1.75-.78 1.75-1.75s-.79-1.75-1.75-1.75zm0 6.94H48.98c-.97 0-1.75.78-1.75 1.75s.78 1.75 1.75 1.75h22.63c.97 0 1.75-.78 1.75-1.75s-.79-1.75-1.75-1.75zM59.86 44.13c-.96 0-1.75-.78-1.75-1.75h-3.49c0 2.27 1.47 4.2 3.49 4.92v2.07h3.49V47.3a5.22 5.22 0 003.49-4.92c0-.46-.18-.91-.51-1.23l-6.36-6.36a1.753 1.753 0 013.39.62h3.49c0-2.27-1.47-4.2-3.49-4.92v-2.07h-3.49v2.07a5.22 5.22 0 00-3.49 4.92c0 .46.18.91.51 1.23L61.49 43a1.75 1.75 0 01-1.63 1.13z"/></g></svg>