<svg xmlns="http://www.w3.org/2000/svg" width="94.24" height="61.46"><path fill="#E3353B" d="M70.51 15.6c0 1.28-.98 1.96-2.18 1.5L48.87 9.6c-1.2-.46-3.17-.48-4.37-.04L24.1 17c-1.21.44-2.2-.25-2.21-1.53l-.08-13.14c0-1.28 1.04-2.33 2.33-2.33h44.04c1.28 0 2.33 1.05 2.33 2.33V15.6z"/><linearGradient id="a" gradientUnits="userSpaceOnUse" x1="21.854" y1="24.637" x2="70.54" y2="24.637"><stop offset="0" stop-color="#32425f"/><stop offset=".452" stop-color="#252e48"/><stop offset="1" stop-color="#171931"/></linearGradient><path fill="url(#a)" d="M70.54 44.87c0 1.43-1.17 2.59-2.59 2.59h-43.5c-1.43 0-2.59-1.17-2.59-2.59V4.41c0-1.43 1.17-2.59 2.59-2.59h43.5c1.43 0 2.59 1.17 2.59 2.59v40.46z"/><path fill="#FFF" d="M65.07 14.38l-4.47-.43V7.48h4.47zM57 16.66v26.25h-5.06v-11.2h-11.9v11.2h-5.1V16.66h5.1v10.61h11.9V16.66H57z"/><path fill="none" d="M19 19.97L46.12 5.04l27.12 15.11"/><path fill="#FFF" d="M21.8 16.12v4.4L46.12 7.13l24.42 13.73v-4.33L46.12 2.79z"/><path fill="#1D1E3E" d="M6.52 54.17v7.1H5.15v-3.03H1.93v3.03H.55v-7.1h1.38v2.87h3.22v-2.87h1.37zm4.51 7.15c-.52 0-.99-.1-1.41-.3-.42-.2-.79-.47-1.09-.81-.3-.34-.54-.72-.71-1.15a3.607 3.607 0 01.02-2.69c.18-.43.42-.82.73-1.15.31-.33.68-.6 1.1-.8.43-.2.89-.29 1.39-.29.51 0 .98.11 1.41.32.42.21.79.48 1.09.82.3.34.53.73.7 1.16.17.43.25.87.25 1.32 0 .47-.09.92-.26 1.36-.17.43-.41.81-.72 1.14-.31.33-.67.59-1.1.79-.44.18-.9.28-1.4.28zm-2.06-3.6c0 .31.05.6.14.89.09.29.23.54.4.76.18.22.39.4.65.53s.55.2.87.2c.33 0 .63-.07.89-.21.26-.14.47-.32.65-.54.18-.23.31-.48.4-.76.09-.29.14-.57.14-.87 0-.31-.05-.6-.15-.89-.1-.29-.23-.54-.41-.76-.18-.22-.39-.39-.65-.53-.26-.13-.54-.2-.87-.2-.33 0-.63.07-.89.21-.26.14-.48.32-.65.54-.17.22-.31.48-.4.76-.08.29-.12.58-.12.87zm5.88 2.1c.09.07.25.14.47.22.22.08.47.12.76.12.28 0 .5-.05.67-.14.17-.1.29-.25.38-.45.09-.2.14-.45.17-.75.03-.29.04-.64.04-1.04v-3.61h1.38v3.61c0 .54-.03 1.03-.09 1.48-.06.44-.18.82-.36 1.13-.18.31-.45.56-.8.73-.35.17-.81.26-1.4.26-.6 0-1.11-.15-1.54-.44l.32-1.12zm8.27.28c.33 0 .6-.07.82-.2.22-.13.4-.31.54-.52.14-.21.23-.46.29-.74.06-.28.08-.56.08-.86v-3.62h1.37v3.62c0 .49-.06.95-.18 1.37-.12.43-.3.8-.55 1.12-.25.32-.57.57-.96.76-.39.19-.86.28-1.41.28-.57 0-1.05-.1-1.44-.29-.4-.2-.72-.46-.97-.78s-.42-.7-.53-1.12c-.11-.43-.16-.87-.16-1.33v-3.62h1.38v3.62c0 .3.03.59.08.87.06.28.15.52.29.74.14.21.31.38.54.51.22.13.49.19.81.19z"/><path fill="#343435" d="M35.99 54.17v7.1h-1.37v-3.03H31.4v3.03h-1.38v-7.1h1.38v2.87h3.22v-2.87h1.37zm4.51 7.15c-.52 0-.99-.1-1.42-.3-.42-.2-.79-.47-1.09-.81-.3-.34-.54-.72-.71-1.15a3.607 3.607 0 01.02-2.69c.18-.43.42-.82.73-1.15.31-.33.68-.6 1.1-.8.43-.2.89-.29 1.39-.29.51 0 .98.11 1.41.32.42.21.79.48 1.08.82.3.34.53.73.7 1.16.17.43.25.87.25 1.32 0 .47-.09.92-.26 1.36-.17.43-.41.81-.72 1.14-.31.33-.67.59-1.1.79-.42.18-.88.28-1.38.28zm-2.06-3.6c0 .31.05.6.14.89.09.29.23.54.4.76.18.22.39.4.65.53s.55.2.88.2c.33 0 .63-.07.89-.21.26-.14.47-.32.65-.54.18-.23.31-.48.4-.76.09-.29.14-.57.14-.87 0-.31-.05-.6-.15-.89-.1-.29-.23-.54-.41-.76-.18-.22-.39-.39-.65-.53-.26-.13-.54-.2-.87-.2-.33 0-.63.07-.89.21-.26.14-.48.32-.65.54-.17.22-.31.48-.4.76-.09.29-.13.58-.13.87zm12.38 3.55v-4.7l-1.83 3.5h-.75l-1.83-3.5v4.7h-1.38v-7.1h1.48l2.1 4.04 2.12-4.04h1.47v7.1h-1.38zm7.78-1.21v1.21h-4.93v-7.1h4.84v1.21h-3.46v1.71h2.99v1.12h-2.99v1.85h3.55zm3.49 1.21v-7.1h1.38v5.89h3.62v1.21h-5zm8.42.05c-.52 0-.99-.1-1.42-.3-.42-.2-.79-.47-1.09-.81-.3-.34-.54-.72-.7-1.15s-.25-.88-.25-1.33c0-.47.09-.93.26-1.36.18-.43.42-.82.73-1.15.31-.33.68-.6 1.11-.8.43-.2.89-.29 1.39-.29.51 0 .98.11 1.41.32.42.21.79.48 1.08.82.3.34.53.73.7 1.16.17.43.25.87.25 1.32 0 .47-.09.92-.26 1.36-.17.43-.41.81-.72 1.14-.31.33-.67.59-1.1.79-.43.18-.89.28-1.39.28zm-2.07-3.6c0 .31.05.6.14.89.09.29.23.54.4.76.18.22.39.4.65.53s.55.2.88.2c.33 0 .63-.07.88-.21.26-.14.47-.32.65-.54.18-.23.31-.48.4-.76a2.958 2.958 0 00-.01-1.76c-.1-.29-.23-.54-.41-.76-.18-.22-.39-.39-.65-.53-.26-.13-.54-.2-.87-.2-.33 0-.63.07-.89.21-.26.14-.48.32-.65.54-.17.22-.31.48-.4.76-.07.29-.12.58-.12.87zm8.37-3.55h1.22l2.7 7.1h-1.42l-.66-1.77h-2.48l-.65 1.77H74.1l2.71-7.1zm1.59 4.36l-.98-2.79-1.02 2.79h2zm4.49-1.81v4.55h-1.38v-7.1h1.07l3.7 4.66v-4.65h1.38v7.09h-1.12l-3.65-4.55zm10.47-.69c-.05-.04-.13-.11-.25-.19s-.27-.16-.45-.23c-.18-.08-.37-.14-.57-.2a2.72 2.72 0 00-.63-.08c-.38 0-.66.07-.85.21-.19.14-.28.34-.28.59 0 .15.03.27.1.36.07.1.17.18.3.26s.3.14.5.2.44.12.71.19c.35.09.66.19.95.3.28.11.52.24.72.4.2.16.35.35.46.57.11.22.16.5.16.83 0 .38-.07.71-.21.97-.14.27-.34.49-.58.65-.24.17-.52.29-.84.37-.32.08-.65.12-.99.12-.53 0-1.06-.08-1.58-.24-.52-.16-.99-.39-1.4-.68l.61-1.19c.06.06.17.14.33.23.16.1.34.19.55.29.21.1.45.18.71.24.26.07.53.1.8.1.76 0 1.14-.24 1.14-.73 0-.15-.04-.28-.13-.39-.09-.11-.21-.2-.37-.28-.16-.08-.35-.15-.58-.22-.23-.07-.48-.14-.76-.22-.34-.09-.64-.2-.89-.3-.25-.11-.46-.24-.62-.39-.17-.15-.29-.32-.38-.52-.08-.2-.12-.43-.12-.71 0-.36.07-.68.2-.96.13-.28.32-.51.55-.7.24-.19.51-.33.83-.42.31-.1.65-.15 1.01-.15.5 0 .96.08 1.38.24.42.16.79.34 1.1.55l-.63 1.13z"/></svg>